<svg width="228" height="61" viewBox="0 0 228 61" fill="none" xmlns="http://www.w3.org/2000/svg">
<path d="M3.23502 33.3845C2.55066 17.044 16.2949 1.28092 33.1757 0.0683707C48.8019 -1.02869 64.6563 11.2122 67.1086 27.0331C70.0171 46.0297 52.1097 60.4647 34.7156 60.9844C23.2525 61.3308 12.1317 55.9032 6.54276 45.51C4.43265 41.5836 3.34908 37.4841 3.23502 33.3845Z" fill="#DAEDFA"/>
<path d="M25.2296 60.384C20.2187 60.384 14.4675 59.5868 9.91217 56.2842C7.23589 54.3481 5.3568 50.8747 7.122 48.3123C9.17192 45.2943 13.1579 44.668 16.8022 44.3832L17.4855 44.3263C18.2257 44.2694 18.966 44.2124 19.7062 44.1555C23.0089 43.9277 26.1407 43.7569 29.3294 43.2444C31.3224 42.9597 32.9168 42.9597 34.682 43.0166C35.707 43.0166 36.7319 43.0736 37.8708 43.0166C38.611 43.0166 39.3513 43.0166 40.1485 43.0736C42.2553 43.2444 44.3622 43.3583 45.7288 42.1056C46.4121 41.4792 46.9246 40.7959 47.2662 40.0556C47.6079 39.3723 47.9495 38.0627 47.3232 37.6071C46.8676 37.2655 46.3552 37.5502 45.6149 38.0057C45.3871 38.1196 45.1594 38.2904 44.9885 38.4043C44.1914 38.8029 43.4511 38.9737 42.7109 39.0307C40.9457 39.1446 38.5541 38.5182 37.7569 36.4113C37.3014 35.2725 37.3583 33.8489 37.8708 32.8809C38.2694 32.1407 38.9527 31.6282 39.7499 31.4004C41.0026 31.1157 42.7678 30.888 43.9636 32.0268C44.1344 32.1976 44.3052 32.4254 44.4761 32.6532C45.0455 33.3934 45.501 33.792 46.0704 33.6781C46.7538 33.5073 47.0385 33.1656 47.0385 32.4254C47.0385 32.3685 47.0385 32.2546 46.9815 32.1407C46.6399 30.4324 45.3302 29.0089 43.4511 28.2686C41.4581 27.4714 39.6929 27.6423 38.1555 28.7811C37.8708 28.9519 37.5291 29.1797 37.1305 29.0658C36.9597 29.0089 36.7319 28.838 36.675 28.4394C36.5611 28.0408 36.675 27.5853 36.7889 27.2437C36.9028 26.7881 37.0736 26.3326 37.2444 25.934C37.3583 25.7062 37.4152 25.4215 37.5291 25.1937C37.7 24.7382 37.8708 24.2827 38.0416 23.7702C38.611 22.2897 39.2943 20.5814 39.0666 19.2148C38.9527 18.3607 38.3833 17.7343 37.6999 17.5635C37.0166 17.3927 36.2764 17.6774 35.7639 18.3607C35.1376 19.1579 34.739 20.012 34.3404 20.98C34.2834 21.0939 34.2834 21.1508 34.2265 21.2647C34.1126 22.1758 33.9418 23.0869 33.714 23.998L33.5432 24.7951C33.4293 25.4215 33.3154 26.1048 32.9168 26.6742C32.746 26.902 32.4613 27.2437 32.1196 27.3006C31.8918 27.3006 31.721 27.2437 31.5502 27.1298C30.9808 26.6173 31.3224 25.6493 31.6071 24.966C32.0057 23.998 32.4613 23.0299 32.9738 22.0619C33.1446 21.7203 33.3154 21.4356 33.4293 21.0939C33.4862 20.7523 33.4862 20.4675 33.4862 20.1259C33.5432 19.044 33.4862 17.9621 32.9168 17.3357C32.3474 16.7663 31.3794 16.8802 30.8099 17.3357C30.0128 17.9621 29.5572 18.987 29.2156 20.1259C29.2725 20.98 29.2725 21.8911 29.2725 22.6883C29.2725 23.0299 29.2725 23.3146 29.2725 23.5424C29.2725 24.2827 29.2156 24.909 29.1017 25.4215C28.9878 25.8201 28.8739 26.1618 28.6461 26.4465C28.3045 26.9589 27.9628 26.902 27.7351 26.902C27.3934 26.7881 27.1656 26.3895 27.1656 25.877C27.1656 25.4785 27.1656 25.1368 27.1656 24.7382C27.2226 23.998 27.3934 23.2577 27.6212 22.5175C27.7351 22.1189 27.849 21.6633 28.0198 21.1508C28.1337 20.8092 28.1906 20.4106 28.3045 20.0689C28.1906 19.044 28.0198 18.076 27.5642 17.5065C27.1656 17.051 26.7671 16.8232 26.3685 16.8802C25.5713 16.9941 24.831 17.8482 24.3755 18.7023C23.4644 20.4675 23.2366 22.5744 23.1797 24.1688C23.1228 25.0229 23.1228 25.877 23.0658 26.7312C23.0089 27.9839 22.9519 29.2936 22.838 30.6032C22.6103 33.1087 19.934 34.6461 18.7951 35.1586L16.4036 36.2975C12.019 38.3474 3.42076 36.2975 1.25696 31.6282C-0.622132 27.5853 -0.394363 22.4036 1.94027 17.3927C5.18597 10.4457 11.8482 4.7515 19.7632 2.30299C26.9948 0.0252998 35.3653 0.253069 43.2803 2.92935C56.9464 7.59861 64.4628 22.5744 60.7615 37.778C58.9963 45.0666 54.4409 51.4441 48.2912 55.1453C42.1414 58.9035 34.739 59.8146 29.728 60.2132C28.3614 60.3271 26.8809 60.384 25.2296 60.384ZM17.5424 45.1804L16.8591 45.2374C13.4426 45.4651 9.6844 46.0915 7.86225 48.7678C6.32481 51.0455 8.43167 54.1204 10.4246 55.5439C16.2327 59.7576 24.2047 59.7007 29.6711 59.3021C34.6251 58.9035 41.9137 57.9924 47.8357 54.3481C53.7576 50.7038 58.1422 44.611 59.9074 37.4932C63.5517 22.6883 56.2631 8.16803 42.9956 3.6696C35.1945 1.05026 27.0518 0.82249 19.9909 3.04323C12.3037 5.49175 5.86928 11.0151 2.73746 17.7343C0.516712 22.5175 0.288943 27.4145 2.05415 31.2296C3.99018 35.3864 12.076 37.3224 16.0619 35.5003L18.4535 34.3614C19.4785 33.9059 21.87 32.5962 22.0409 30.4894C22.1547 29.2366 22.2117 27.927 22.2117 26.6742C22.2686 25.8201 22.2686 24.909 22.3256 24.0549C22.4394 22.3466 22.6672 20.1828 23.6352 18.2468C24.1477 17.2218 25.1157 16.083 26.2546 15.9691C26.7671 15.9122 27.5073 16.026 28.1906 16.8802C28.4753 17.2788 28.7031 17.7343 28.8739 18.3607C29.2156 17.6774 29.6142 17.051 30.1836 16.5955C31.0377 15.9122 32.5182 15.7413 33.4293 16.6524C33.9987 17.2218 34.2265 18.076 34.2834 18.9301C34.5112 18.5315 34.739 18.1329 35.0806 17.7343C35.8209 16.7663 36.9028 16.3677 37.9277 16.6524C38.9527 16.9371 39.6929 17.7913 39.9207 18.987C40.2054 20.5245 39.4652 22.3466 38.8388 23.941C38.668 24.4535 38.4402 24.909 38.3263 25.3076C38.2124 25.5923 38.1555 25.8201 38.0416 26.1048C37.8708 26.5034 37.7569 26.902 37.643 27.2437C37.5861 27.5284 37.4722 27.8131 37.5291 28.0408C37.5861 28.0408 37.643 27.9839 37.6999 27.927C39.4652 26.6742 41.572 26.4465 43.8497 27.3575C46.0135 28.2117 47.5509 29.9199 47.9495 31.856C47.9495 31.9699 48.0065 32.0837 48.0065 32.1976C48.0065 32.2546 48.0065 32.3115 48.0065 32.3115C47.9495 33.4504 47.3801 34.1337 46.3552 34.4184C45.2163 34.7031 44.4761 33.8489 43.9066 33.1087C43.7358 32.9379 43.565 32.7101 43.4511 32.5962C42.7678 31.9699 41.6859 31.799 40.0346 32.1976C39.4652 32.3115 39.0096 32.6532 38.7249 33.2226C38.3263 34.0198 38.2694 35.1017 38.611 36.0697C39.2374 37.721 41.2304 38.1766 42.7109 38.1196C43.3372 38.0627 44.0205 37.8918 44.6469 37.5502C44.8177 37.4932 44.9885 37.3224 45.2163 37.2085C45.9566 36.753 46.9246 36.1266 47.8926 36.8099C48.9176 37.5502 48.6898 39.1446 48.1204 40.3404C47.7218 41.1375 47.1523 41.9347 46.4121 42.618C44.7608 44.1555 42.3123 43.9847 40.2054 43.8138C39.4082 43.7569 38.668 43.6999 37.9847 43.7569C36.8458 43.8138 35.7639 43.7569 34.7959 43.7569C33.0876 43.6999 31.4933 43.6999 29.6142 43.9847C26.3115 44.4971 23.0658 44.668 19.8771 44.8957C19.0229 45.1235 18.2827 45.1235 17.5424 45.1804ZM32.8029 24.2827C32.689 24.6243 32.5182 24.909 32.4043 25.2507C32.1196 25.877 32.1196 26.2187 32.1196 26.3326C32.1766 26.2756 32.1766 26.2187 32.2335 26.1618C32.5182 25.7632 32.6321 25.1937 32.746 24.6243L32.8029 24.2827ZM28.4184 22.8591C28.2475 23.4855 28.0767 24.1118 28.0767 24.7382C28.0767 25.0799 28.0198 25.4215 28.0767 25.7632C28.1906 25.5923 28.2475 25.4215 28.3045 25.1368C28.4184 24.6813 28.4753 24.1118 28.4753 23.4855C28.4184 23.3146 28.4184 23.0869 28.4184 22.8591Z" fill="#F29A36"/>
<path d="M40.2624 27.1301C40.0916 27.1301 39.9207 27.0162 39.8638 26.8454L39.3513 25.4218C39.2944 25.1941 39.4082 24.9663 39.636 24.8524C39.8638 24.7955 40.0916 24.9093 40.2054 25.1371L40.7179 26.5607C40.7749 26.7884 40.661 27.0162 40.4332 27.1301C40.3763 27.1301 40.3193 27.1301 40.2624 27.1301Z" fill="#F29A36"/>
<path d="M42.1986 26.9582C41.9709 26.9582 41.7431 26.7304 41.7431 26.5026L41.8 25.0221C41.8 24.7944 42.0278 24.6235 42.2556 24.6235C42.4833 24.6235 42.6542 24.8513 42.6542 25.0791L42.5972 26.5596C42.6542 26.7873 42.4264 26.9582 42.1986 26.9582Z" fill="#F29A36"/>
<path d="M43.9065 27.3577C43.8495 27.3577 43.7356 27.3577 43.6787 27.3008C43.5079 27.1869 43.4509 26.9022 43.5648 26.7313L44.4189 25.4217C44.5328 25.2508 44.8175 25.1939 44.9884 25.3078C45.1592 25.4217 45.2161 25.7064 45.1022 25.8772L44.2481 27.1869C44.1342 27.3008 44.0203 27.3577 43.9065 27.3577Z" fill="#F29A36"/>
<path d="M40.4775 37.6545C40.6571 38.0561 41.0163 38.4576 41.4952 38.515C41.8544 38.5724 42.2735 38.4003 42.5728 38.2282C43.9498 37.2529 43.4708 33.0078 41.1959 33.8109C39.7591 34.2699 40.0585 36.7366 40.4775 37.6545Z" fill="#F29A36"/>
<path d="M78.6579 19.3598C78.6579 17.9151 78.979 16.7914 79.7816 15.9888C80.5842 15.1862 81.5474 14.7046 82.6711 14.7046H97.6C99.0447 14.7046 100.008 15.0256 100.811 15.6677C101.613 16.3099 101.934 17.1125 101.934 18.0756C101.934 19.0388 101.613 20.002 100.811 20.6441C100.008 21.4467 99.0447 21.7677 97.6 21.7677H86.6842V27.7072H92.9447C94.3895 27.7072 95.5132 28.0283 96.3158 28.8309C97.1184 29.6335 97.4395 30.4362 97.4395 31.2388C97.4395 32.0414 96.9579 33.0046 96.1553 33.6467C95.3526 34.2888 94.2289 34.7704 92.9447 34.7704H86.6842V40.7098H97.6C98.8842 40.7098 100.008 41.0309 100.811 41.8335C101.613 42.6362 101.934 43.4388 101.934 44.402C101.934 45.3651 101.613 46.3283 100.811 47.1309C100.008 47.9335 99.0447 48.2546 97.7605 48.2546H82.8316H82.6711C81.5474 48.2546 80.5842 47.9335 79.7816 47.1309C78.979 46.3283 78.6579 45.2046 78.6579 43.7598V19.3598Z" fill="#4A87AF"/>
<path d="M119.913 18.878C119.913 17.4333 120.234 16.3096 121.037 15.507C121.839 14.7044 122.803 14.3833 123.926 14.3833C125.05 14.3833 126.013 14.8649 126.816 15.6675C127.618 16.4701 128.1 17.5938 128.1 18.878V40.8702H139.016C140.46 40.8702 141.584 41.1912 142.387 41.9938C143.189 42.7965 143.671 43.7596 143.671 44.7228C143.671 45.6859 143.35 46.6491 142.547 47.2912C141.745 47.9333 140.621 48.4149 139.016 48.4149H124.087C122.963 48.4149 122 47.9333 121.197 47.1307C120.395 46.328 120.074 45.2043 120.074 43.7596V18.878H119.913Z" fill="#4A87AF"/>
<path d="M209.647 36.0545V44.4018C209.647 45.8466 209.326 46.9703 208.524 47.7729C207.721 48.5755 206.758 48.8966 205.634 48.8966C204.511 48.8966 203.547 48.415 202.745 47.6124C201.942 46.8097 201.461 45.6861 201.461 44.4018V26.9045C201.461 23.0518 202.745 20.0018 205.313 17.7545C207.882 15.5071 210.932 14.5439 214.463 14.5439C217.995 14.5439 221.045 15.6676 223.613 17.7545C226.182 20.0018 227.466 23.0518 227.466 26.9045V44.4018C227.466 45.8466 226.984 46.8097 226.182 47.6124C225.379 48.415 224.416 48.8966 223.292 48.8966C222.168 48.8966 221.205 48.5755 220.403 47.7729C219.6 46.9703 219.279 45.8466 219.279 44.4018V36.0545H209.647ZM209.647 29.6334H219.6V26.9045C219.6 25.1387 219.118 23.8545 218.155 22.8913C217.192 21.9282 216.068 21.4466 214.624 21.4466C213.339 21.4466 212.055 21.9282 211.092 22.8913C210.129 23.8545 209.647 25.1387 209.647 26.9045V29.6334Z" fill="#4A87AF"/>
<path d="M183.321 13.4202L180.271 12.9386C178.024 12.6175 175.937 13.0991 174.332 14.3833C172.726 15.507 171.763 17.4333 171.282 19.3597L167.59 41.1912C167.59 41.5123 167.268 41.5123 167.268 41.5123L164.379 41.0307C163.255 40.8702 162.292 41.5123 162.132 42.636L161.65 45.8465C161.489 46.9702 162.132 47.9333 163.255 48.0939L166.305 48.5754C166.787 48.736 167.268 48.736 167.75 48.736C169.355 48.736 170.961 48.2544 172.405 47.2912C174.011 46.1676 174.974 44.2412 175.455 42.3149L179.147 20.4833C179.147 20.1623 179.468 20.1623 179.468 20.1623L182.358 20.6439C183.482 20.8044 184.445 20.1623 184.605 19.0386L185.087 15.8281C185.087 14.5439 184.445 13.5807 183.321 13.4202Z" fill="#F29A36"/>
</svg>
