<svg width="109" height="136" viewBox="0 0 109 136" fill="none" xmlns="http://www.w3.org/2000/svg">
<path d="M44.3074 104.737C35.5074 104.737 25.4074 103.337 17.4074 97.5367C12.7074 94.1367 9.40743 88.0367 12.5074 83.5367C16.1074 78.2367 23.1074 77.1367 29.5074 76.6367L30.7074 76.5367C32.0074 76.4367 33.3074 76.3367 34.6074 76.2367C40.4074 75.8367 45.9074 75.5367 51.5074 74.6367C55.0074 74.1367 57.8074 74.1367 60.9074 74.2367C62.7074 74.2367 64.5074 74.3367 66.5074 74.2367C67.8074 74.2367 69.1074 74.2367 70.5074 74.3367C74.2074 74.6367 77.9074 74.8367 80.3074 72.6367C81.5074 71.5367 82.4074 70.3367 83.0074 69.0367C83.6074 67.8367 84.2074 65.5367 83.1074 64.7367C82.3074 64.1367 81.4074 64.6367 80.1074 65.4367C79.7074 65.6367 79.3074 65.9367 79.0074 66.1367C77.6074 66.8367 76.3074 67.1367 75.0074 67.2367C71.9074 67.4367 67.7074 66.3367 66.3074 62.6367C65.5074 60.6367 65.6074 58.1367 66.5074 56.4367C67.2074 55.1367 68.4074 54.2367 69.8074 53.8367C72.0074 53.3367 75.1074 52.9367 77.2074 54.9367C77.5074 55.2367 77.8074 55.6367 78.1074 56.0367C79.1074 57.3367 79.9074 58.0367 80.9074 57.8367C82.1074 57.5367 82.6074 56.9367 82.6074 55.6367C82.6074 55.5367 82.6074 55.3367 82.5074 55.1367C81.9074 52.1367 79.6074 49.6367 76.3074 48.3367C72.8074 46.9367 69.7074 47.2367 67.0074 49.2367C66.5074 49.5367 65.9074 49.9367 65.2074 49.7367C64.9074 49.6367 64.5074 49.3367 64.4074 48.6367C64.2074 47.9367 64.4074 47.1367 64.6074 46.5367C64.8074 45.7367 65.1074 44.9367 65.4074 44.2367C65.6074 43.8367 65.7074 43.3367 65.9074 42.9367C66.2074 42.1367 66.5074 41.3367 66.8074 40.4367C67.8074 37.8367 69.0074 34.8367 68.6074 32.4367C68.4074 30.9367 67.4074 29.8367 66.2074 29.5367C65.0074 29.2367 63.7074 29.7367 62.8074 30.9367C61.7074 32.3367 61.0074 33.8367 60.3074 35.5367C60.2074 35.7367 60.2074 35.8367 60.1074 36.0367C59.9074 37.6367 59.6074 39.2367 59.2074 40.8367L58.9074 42.2367C58.7074 43.3367 58.5074 44.5367 57.8074 45.5367C57.5074 45.9367 57.0074 46.5367 56.4074 46.6367C56.0074 46.6367 55.7074 46.5367 55.4074 46.3367C54.4074 45.4367 55.0074 43.7367 55.5074 42.5367C56.2074 40.8367 57.0074 39.1367 57.9074 37.4367C58.2074 36.8367 58.5074 36.3367 58.7074 35.7367C58.8074 35.1367 58.8074 34.6367 58.8074 34.0367C58.9074 32.1367 58.8074 30.2367 57.8074 29.1367C56.8074 28.1367 55.1074 28.3367 54.1074 29.1367C52.7074 30.2367 51.9074 32.0367 51.3074 34.0367C51.4074 35.5367 51.4074 37.1367 51.4074 38.5367C51.4074 39.1367 51.4074 39.6367 51.4074 40.0367C51.4074 41.3367 51.3074 42.4367 51.1074 43.3367C50.9074 44.0367 50.7074 44.6367 50.3074 45.1367C49.7074 46.0367 49.1074 45.9367 48.7074 45.9367C48.1074 45.7367 47.7074 45.0367 47.7074 44.1367C47.7074 43.4367 47.7074 42.8367 47.7074 42.1367C47.8074 40.8367 48.1074 39.5367 48.5074 38.2367C48.7074 37.5367 48.9074 36.7367 49.2074 35.8367C49.4074 35.2367 49.5074 34.5367 49.7074 33.9367C49.5074 32.1367 49.2074 30.4367 48.4074 29.4367C47.7074 28.6367 47.0074 28.2367 46.3074 28.3367C44.9074 28.5367 43.6074 30.0367 42.8074 31.5367C41.2074 34.6367 40.8074 38.3367 40.7074 41.1367C40.6074 42.6367 40.6074 44.1367 40.5074 45.6367C40.4074 47.8367 40.3074 50.1367 40.1074 52.4367C39.7074 56.8367 35.0074 59.5367 33.0074 60.4367L28.8074 62.4367C21.1074 66.0367 6.00743 62.4367 2.20743 54.2367C-1.09257 47.1367 -0.692568 38.0367 3.40743 29.2367C9.10743 17.0367 20.8074 7.03674 34.7074 2.73674C47.4074 -1.26326 62.1074 -0.863262 76.0074 3.83674C100.007 12.0367 113.207 38.3367 106.707 65.0367C103.607 77.8367 95.6074 89.0367 84.8074 95.5367C74.0074 102.137 61.0074 103.737 52.2074 104.437C49.8074 104.637 47.2074 104.737 44.3074 104.737ZM30.8074 78.0367L29.6074 78.1367C23.6074 78.5367 17.0074 79.6367 13.8074 84.3367C11.1074 88.3367 14.8074 93.7367 18.3074 96.2367C28.5074 103.637 42.5074 103.537 52.1074 102.837C60.8074 102.137 73.6074 100.537 84.0074 94.1367C94.4074 87.7367 102.107 77.0367 105.207 64.5367C111.607 38.5367 98.8074 13.0367 75.5074 5.13674C61.8074 0.536737 47.5074 0.136737 35.1074 4.03674C21.6074 8.33674 10.3074 18.0367 4.80743 29.8367C0.907433 38.2367 0.507432 46.8367 3.60743 53.5367C7.00743 60.8367 21.2074 64.2367 28.2074 61.0367L32.4074 59.0367C34.2074 58.2367 38.4074 55.9367 38.7074 52.2367C38.9074 50.0367 39.0074 47.7367 39.0074 45.5367C39.1074 44.0367 39.1074 42.4367 39.2074 40.9367C39.4074 37.9367 39.8074 34.1367 41.5074 30.7367C42.4074 28.9367 44.1074 26.9367 46.1074 26.7367C47.0074 26.6367 48.3074 26.8367 49.5074 28.3367C50.0074 29.0367 50.4074 29.8367 50.7074 30.9367C51.3074 29.7367 52.0074 28.6367 53.0074 27.8367C54.5074 26.6367 57.1074 26.3367 58.7074 27.9367C59.7074 28.9367 60.1074 30.4367 60.2074 31.9367C60.6074 31.2367 61.0074 30.5367 61.6074 29.8367C62.9074 28.1367 64.8074 27.4367 66.6074 27.9367C68.4074 28.4367 69.7074 29.9367 70.1074 32.0367C70.6074 34.7367 69.3074 37.9367 68.2074 40.7367C67.9074 41.6367 67.5074 42.4367 67.3074 43.1367C67.1074 43.6367 67.0074 44.0367 66.8074 44.5367C66.5074 45.2367 66.3074 45.9367 66.1074 46.5367C66.0074 47.0367 65.8074 47.5367 65.9074 47.9367C66.0074 47.9367 66.1074 47.8367 66.2074 47.7367C69.3074 45.5367 73.0074 45.1367 77.0074 46.7367C80.8074 48.2367 83.5074 51.2367 84.2074 54.6367C84.2074 54.8367 84.3074 55.0367 84.3074 55.2367C84.3074 55.3367 84.3074 55.4367 84.3074 55.4367C84.2074 57.4367 83.2074 58.6367 81.4074 59.1367C79.4074 59.6367 78.1074 58.1367 77.1074 56.8367C76.8074 56.5367 76.5074 56.1367 76.3074 55.9367C75.1074 54.8367 73.2074 54.5367 70.3074 55.2367C69.3074 55.4367 68.5074 56.0367 68.0074 57.0367C67.3074 58.4367 67.2074 60.3367 67.8074 62.0367C68.9074 64.9367 72.4074 65.7367 75.0074 65.6367C76.1074 65.5367 77.3074 65.2367 78.4074 64.6367C78.7074 64.5367 79.0074 64.2367 79.4074 64.0367C80.7074 63.2367 82.4074 62.1367 84.1074 63.3367C85.9074 64.6367 85.5074 67.4367 84.5074 69.5367C83.8074 70.9367 82.8074 72.3367 81.5074 73.5367C78.6074 76.2367 74.3074 75.9367 70.6074 75.6367C69.2074 75.5367 67.9074 75.4367 66.7074 75.5367C64.7074 75.6367 62.8074 75.5367 61.1074 75.5367C58.1074 75.4367 55.3074 75.4367 52.0074 75.9367C46.2074 76.8367 40.5074 77.1367 34.9074 77.5367C33.4074 77.9367 32.1074 77.9367 30.8074 78.0367ZM57.6074 41.3367C57.4074 41.9367 57.1074 42.4367 56.9074 43.0367C56.4074 44.1367 56.4074 44.7367 56.4074 44.9367C56.5074 44.8367 56.5074 44.7367 56.6074 44.6367C57.1074 43.9367 57.3074 42.9367 57.5074 41.9367L57.6074 41.3367ZM49.9074 38.8367C49.6074 39.9367 49.3074 41.0367 49.3074 42.1367C49.3074 42.7367 49.2074 43.3367 49.3074 43.9367C49.5074 43.6367 49.6074 43.3367 49.7074 42.8367C49.9074 42.0367 50.0074 41.0367 50.0074 39.9367C49.9074 39.6367 49.9074 39.2367 49.9074 38.8367Z" fill="white"/>
<path d="M70.7075 46.337C70.4075 46.337 70.1075 46.137 70.0075 45.837L69.1075 43.337C69.0075 42.937 69.2075 42.537 69.6075 42.337C70.0075 42.237 70.4075 42.437 70.6075 42.837L71.5075 45.337C71.6075 45.737 71.4075 46.137 71.0075 46.337C70.9075 46.337 70.8075 46.337 70.7075 46.337Z" fill="white"/>
<path d="M74.1074 46.0365C73.7074 46.0365 73.3074 45.6365 73.3074 45.2365L73.4074 42.6365C73.4074 42.2365 73.8074 41.9365 74.2074 41.9365C74.6074 41.9365 74.9074 42.3365 74.9074 42.7365L74.8074 45.3365C74.9074 45.7365 74.5074 46.0365 74.1074 46.0365Z" fill="white"/>
<path d="M77.1074 46.7373C77.0074 46.7373 76.8074 46.7373 76.7074 46.6373C76.4074 46.4373 76.3074 45.9373 76.5074 45.6373L78.0074 43.3373C78.2074 43.0373 78.7074 42.9373 79.0074 43.1373C79.3074 43.3373 79.4074 43.8373 79.2074 44.1373L77.7074 46.4373C77.5074 46.6373 77.3074 46.7373 77.1074 46.7373Z" fill="white"/>
<path d="M71.4074 63.0373C71.7074 63.7373 72.3074 64.4373 73.1074 64.5373C73.7074 64.6373 74.4074 64.3373 74.9074 64.0373C77.2074 62.3373 76.4074 54.9373 72.6074 56.3373C70.2074 57.1373 70.7074 61.4373 71.4074 63.0373Z" fill="white"/>
<path d="M13.4074 117.237C13.4074 116.337 13.6074 115.637 14.1074 115.137C14.6074 114.637 15.2074 114.337 15.9074 114.337H25.2074C26.1074 114.337 26.7074 114.537 27.2074 114.937C27.7074 115.337 27.9074 115.837 27.9074 116.437C27.9074 117.037 27.7074 117.637 27.2074 118.037C26.7074 118.537 26.1074 118.737 25.2074 118.737H18.4074V122.437H22.3074C23.2074 122.437 23.9074 122.637 24.4074 123.137C24.9074 123.637 25.1074 124.137 25.1074 124.637C25.1074 125.137 24.8074 125.737 24.3074 126.137C23.8074 126.537 23.1074 126.837 22.3074 126.837H18.4074V130.537H25.2074C26.0074 130.537 26.7074 130.737 27.2074 131.237C27.7074 131.737 27.9074 132.237 27.9074 132.837C27.9074 133.437 27.7074 134.037 27.2074 134.537C26.7074 135.037 26.1074 135.237 25.3074 135.237H16.0074H15.9074C15.2074 135.237 14.6074 135.037 14.1074 134.537C13.6074 134.037 13.4074 133.337 13.4074 132.437V117.237Z" fill="white"/>
<path d="M39.1074 116.937C39.1074 116.037 39.3074 115.337 39.8074 114.837C40.3074 114.337 40.9074 114.137 41.6074 114.137C42.3074 114.137 42.9074 114.437 43.4074 114.937C43.9074 115.437 44.2074 116.137 44.2074 116.937V130.637H51.0074C51.9074 130.637 52.6074 130.837 53.1074 131.337C53.6074 131.837 53.9074 132.437 53.9074 133.037C53.9074 133.637 53.7074 134.237 53.2074 134.637C52.7074 135.037 52.0074 135.337 51.0074 135.337H41.7074C41.0074 135.337 40.4074 135.037 39.9074 134.537C39.4074 134.037 39.2074 133.337 39.2074 132.437V116.937H39.1074Z" fill="white"/>
<path d="M95.0074 127.636V132.836C95.0074 133.736 94.8074 134.436 94.3074 134.936C93.8074 135.436 93.2074 135.636 92.5074 135.636C91.8074 135.636 91.2074 135.336 90.7074 134.836C90.2074 134.336 89.9074 133.636 89.9074 132.836V121.936C89.9074 119.536 90.7074 117.636 92.3074 116.236C93.9074 114.836 95.8074 114.236 98.0074 114.236C100.207 114.236 102.107 114.936 103.707 116.236C105.307 117.636 106.107 119.536 106.107 121.936V132.836C106.107 133.736 105.807 134.336 105.307 134.836C104.807 135.336 104.207 135.636 103.507 135.636C102.807 135.636 102.207 135.436 101.707 134.936C101.207 134.436 101.007 133.736 101.007 132.836V127.636H95.0074ZM95.0074 123.636H101.207V121.936C101.207 120.836 100.907 120.036 100.307 119.436C99.7074 118.836 99.0074 118.536 98.1074 118.536C97.3074 118.536 96.5074 118.836 95.9074 119.436C95.3074 120.036 95.0074 120.836 95.0074 121.936V123.636Z" fill="white"/>
<path d="M78.6074 113.537L76.7074 113.237C75.3074 113.037 74.0074 113.337 73.0074 114.137C72.0074 114.837 71.4074 116.037 71.1074 117.237L68.8074 130.837C68.8074 131.037 68.6074 131.037 68.6074 131.037L66.8074 130.737C66.1074 130.637 65.5074 131.037 65.4074 131.737L65.1074 133.737C65.0074 134.437 65.4074 135.037 66.1074 135.137L68.0074 135.437C68.3074 135.537 68.6074 135.537 68.9074 135.537C69.9074 135.537 70.9074 135.237 71.8074 134.637C72.8074 133.937 73.4074 132.737 73.7074 131.537L76.0074 117.937C76.0074 117.737 76.2074 117.737 76.2074 117.737L78.0074 118.037C78.7074 118.137 79.3074 117.737 79.4074 117.037L79.7074 115.037C79.7074 114.237 79.3074 113.637 78.6074 113.537Z" fill="white"/>
</svg>
