<svg width="59" height="53" viewBox="0 0 59 53" fill="none" xmlns="http://www.w3.org/2000/svg">
<path d="M5.98372 52.2948C5.29423 52.2948 4.74264 52.2948 4.05315 52.2948C3.63945 52.2948 3.22576 52.2948 2.94996 52.2948C2.53627 52.2948 2.26047 51.8811 2.26047 51.6053C2.26047 51.1916 2.67416 50.9158 2.94996 50.9158C3.36366 50.9158 3.63945 50.9158 4.05315 50.9158C10.9481 51.1916 17.9809 50.0884 24.1863 49.1231C27.7716 48.5715 30.6675 48.5715 33.7013 48.7094C35.4939 48.7094 37.2866 48.7094 39.3551 48.7094C40.5962 48.7094 41.9752 48.7094 43.492 48.8473C47.2153 49.1231 51.0764 49.3989 53.5586 47.0547C54.7997 45.9515 55.6271 44.7104 56.3166 43.4693C56.8682 42.2282 57.5577 39.884 56.3166 38.9187C55.4892 38.3671 54.5239 38.7808 53.1449 39.6082C52.7312 39.884 52.3175 40.1598 52.0417 40.2977C50.6627 40.9871 49.2838 41.4008 48.0427 41.4008C44.871 41.5387 40.7341 40.4355 39.3551 36.8502C38.3898 34.6438 38.5277 32.1617 39.493 30.5069C40.1825 29.1279 41.4236 28.3005 42.8025 27.8868C45.0089 27.3352 48.1806 26.9215 50.249 28.99C50.5248 29.2658 50.9385 29.6795 51.2143 30.0932C52.3175 31.3343 53.007 32.1617 54.1102 31.8859C55.3513 31.6101 55.9029 30.9206 55.9029 29.5416C55.9029 29.4037 55.9029 29.2658 55.765 28.99C55.2134 25.9562 52.7312 23.3362 49.2838 21.9572C45.6984 20.5782 42.5267 20.854 39.6309 22.7846C39.2172 23.0604 38.5277 23.4741 37.8382 23.1983C37.5624 23.0604 37.1487 22.7846 37.0108 22.0951C36.8729 21.4056 37.0108 20.5782 37.1487 20.0266C37.4245 19.1992 37.7003 18.3718 37.9761 17.6823C38.114 17.2686 38.2519 16.7171 38.5277 16.3034C38.8035 15.476 39.0793 14.6486 39.493 13.6833C40.5962 10.9253 41.6994 7.89157 41.2857 5.5473C41.2857 4.30622 40.3204 3.06513 39.0793 2.78933C37.8382 2.51354 36.4592 3.06513 35.4939 4.30621C34.3907 5.6852 33.7013 7.33998 33.0118 8.99475C32.8739 9.13265 32.8739 9.40845 32.736 9.54635C32.4602 11.2011 32.1844 12.8559 31.9086 14.3728L31.6328 15.7518C31.357 16.855 31.2191 18.096 30.5296 19.0613C30.2538 19.475 29.7022 20.0266 29.1506 20.1645C28.8748 20.1645 28.4611 20.1645 28.1853 19.8887C27.22 19.0613 27.7716 17.2686 28.3232 16.0276C29.0127 14.2349 29.8401 12.5801 30.6675 10.9253C30.9433 10.3737 31.2191 9.82214 31.4949 9.13265C31.6328 8.58106 31.6328 8.02947 31.6328 7.33998C31.7707 5.4094 31.6328 3.34093 30.5296 2.37564C29.4264 1.27245 27.6337 1.54825 26.6685 2.37564C25.1516 3.61672 24.3242 5.4094 23.7726 7.33998C23.9105 8.85686 23.9105 10.5116 23.9105 12.0285C23.9105 12.5801 23.9105 13.1317 23.9105 13.5454C23.9105 14.7865 23.7726 15.8897 23.6347 16.855C23.4968 17.2686 23.3589 17.9581 22.8073 18.6476C22.2557 19.475 21.5662 19.475 21.2904 19.3371C20.7388 19.1992 20.3251 18.5097 20.3251 17.5444C20.3251 16.855 20.3251 16.1655 20.3251 15.476C20.463 14.097 20.7388 12.8559 21.1525 11.4769C21.4283 10.6495 21.5662 9.82214 21.842 8.99475C21.9799 8.30526 22.1178 7.61577 22.3936 7.06418C22.2557 5.1336 21.842 3.47883 21.0146 2.51354C20.3251 1.68615 19.4977 1.27245 18.8083 1.41035C17.4293 1.54825 16.0503 3.20303 15.2229 4.71991C13.5681 7.89157 13.1544 11.6148 13.0165 14.5107C12.8786 16.0276 12.8786 17.5444 12.8786 19.1992C12.7407 21.4056 12.7407 23.7499 12.4649 26.0941C12.0512 30.5069 7.2248 33.2648 5.29423 34.2301L1.01939 36.2986C0.743589 36.4365 0.329895 36.2986 0.0540981 36.0228C-0.0838001 35.747 0.0540982 35.3333 0.329895 35.0575L4.60474 32.989C6.39742 32.1617 10.6723 29.8174 11.086 25.9562C11.2239 23.7499 11.3618 21.4056 11.4996 19.1992C11.4996 17.6823 11.6375 16.0276 11.6375 14.5107C11.7754 11.4769 12.1891 7.61577 13.9818 4.16832C14.9471 2.37564 16.6019 0.307166 18.6704 0.0313699C19.4977 -0.106528 20.8767 0.169268 22.1178 1.68615C22.6694 2.37564 23.0831 3.34093 23.3589 4.44411C23.9105 3.20303 24.7379 1.96195 25.8411 1.13456C27.3579 -0.106528 29.978 -0.382325 31.4949 1.27245C32.5981 2.37564 32.8739 3.89252 33.0118 5.6852C33.4255 4.85781 33.9771 4.03042 34.5286 3.34093C35.9076 1.68615 37.7003 0.996657 39.493 1.41035C41.2857 1.82405 42.6646 3.47883 42.9404 5.5473C43.3541 8.30526 42.113 11.6148 41.0099 14.3728C40.7341 15.2002 40.3204 16.0276 40.0446 16.855C39.9067 17.4065 39.7688 17.8202 39.493 18.2339C39.2172 18.9234 38.9414 19.6129 38.8035 20.3024C38.6656 20.854 38.5277 21.4056 38.5277 21.8193C38.6656 21.8193 38.8035 21.6814 38.9414 21.5435C42.113 19.3371 45.8363 18.9234 49.8354 20.4403C53.6965 21.9572 56.4545 24.9909 57.144 28.4384C57.144 28.5763 57.144 28.8521 57.2819 28.99C57.2819 28.99 57.2819 29.1279 57.2819 29.2658C57.144 31.3343 56.1787 32.4375 54.386 32.8511C52.3175 33.2648 51.0764 31.748 50.1112 30.6448C49.8354 30.369 49.5596 29.9553 49.2838 29.6795C48.0427 28.4384 46.1121 28.3005 43.0783 28.99C41.9752 29.2658 41.1478 29.8174 40.5962 30.9206C39.9067 32.2996 39.7688 34.368 40.4583 36.0228C41.5615 38.9187 45.1468 39.884 47.9048 39.7461C49.008 39.7461 50.249 39.3324 51.4901 38.7808C51.7659 38.6429 52.1796 38.3671 52.4554 38.2292C53.6965 37.4018 55.4892 36.2986 57.144 37.5397C58.9366 38.9187 58.5229 41.6766 57.5577 43.7451C56.8682 45.262 55.9029 46.5031 54.5239 47.7442C51.628 50.5021 47.2153 50.0884 43.3541 49.9505C41.9752 49.8126 40.5962 49.8126 39.3551 49.8126C37.2866 49.9505 35.356 49.8126 33.5634 49.8126C30.5296 49.8126 27.6337 49.6747 24.1863 50.2263C18.6704 51.3295 12.327 52.2948 5.98372 52.2948ZM30.5296 14.2349C30.1159 15.0623 29.8401 15.7518 29.5643 16.5792C29.0127 17.9581 29.0127 18.5097 29.0127 18.7855C29.1506 18.6476 29.2885 18.6476 29.4264 18.3718C29.978 17.6823 30.1159 16.5792 30.3917 15.6139L30.5296 14.2349ZM22.5315 11.8906C22.5315 12.0285 22.5315 12.0285 22.3936 12.1664C21.9799 13.4075 21.7041 14.5107 21.7041 15.7518C21.7041 16.3034 21.7041 16.9929 21.7041 17.5444C21.7041 17.6823 21.7041 17.6823 21.7041 17.8202C21.9799 17.5444 22.1178 17.1307 22.2557 16.4413C22.5315 15.6139 22.5315 14.6486 22.5315 13.4075C22.5315 13.1317 22.5315 12.5801 22.5315 11.8906C22.5315 11.8906 22.5315 12.0285 22.5315 11.8906Z" fill="#F29A36"/>
<path d="M43.6298 19.8889C43.354 19.8889 43.0782 19.751 42.9403 19.4752L41.9751 16.8552C41.8372 16.4415 41.9751 16.1657 42.3887 16.0278C42.8024 15.8899 43.0782 16.0278 43.2161 16.4415L44.1814 19.0615C44.3193 19.4752 44.1814 19.751 43.7677 19.8889H43.6298Z" fill="#F29A36"/>
<path d="M47.0774 19.6133C46.6637 19.6133 46.3879 19.3375 46.3879 18.9238L46.5258 16.3037C46.5258 15.8901 46.8016 15.6143 47.2153 15.6143C47.629 15.6143 47.9048 15.8901 47.9048 16.3037L47.7669 18.9238C47.7669 19.3375 47.4911 19.6133 47.0774 19.6133Z" fill="#F29A36"/>
<path d="M50.1114 20.4403C49.9735 20.4403 49.8356 20.4403 49.6977 20.3024C49.4219 20.0266 49.284 19.6129 49.5598 19.3371L51.0766 16.9928C51.3524 16.717 51.7661 16.5791 52.0419 16.8549C52.3177 17.1307 52.4556 17.5444 52.1798 17.8202L50.6629 20.1645C50.525 20.3024 50.3871 20.4403 50.1114 20.4403Z" fill="#F29A36"/>
<path d="M44.3194 37.1257C44.5952 37.8152 45.1468 38.5047 46.1121 38.6426C46.8016 38.7805 47.4911 38.5047 47.9048 38.091C50.249 36.2983 49.4216 28.8518 45.5605 30.2308C43.2162 31.0582 43.6299 35.4709 44.3194 37.1257Z" fill="#F29A36"/>
</svg>
